<svg width="16" height="16" viewBox="0 0 16 16" fill="none" xmlns="http://www.w3.org/2000/svg">
<rect width="16" height="16" rx="8" fill="white"/>
<path d="M8 14C11.3138 14 14 11.3138 14 8C14 7.7222 13.5836 7.676 13.4402 7.9142C13.1343 8.4208 12.7172 8.85116 12.2204 9.17268C11.7236 9.4942 11.1601 9.69844 10.5727 9.76994C9.98526 9.84144 9.38926 9.77832 8.82983 9.58537C8.2704 9.39241 7.76222 9.07468 7.34377 8.65623C6.92532 8.23778 6.60759 7.7296 6.41463 7.17017C6.22168 6.61074 6.15856 6.01474 6.23006 5.4273C6.30156 4.83986 6.5058 4.2764 6.82732 3.77959C7.14884 3.28278 7.5792 2.86565 8.0858 2.5598C8.324 2.4158 8.2778 2 8 2C4.6862 2 2 4.6862 2 8C2 11.3138 4.6862 14 8 14Z" fill="#FFD233"/>
</svg>
