<?xml version="1.0" encoding="UTF-8"?><svg version="1.1" xmlns="http://www.w3.org/2000/svg" width="400" height="400"><path d="M0 0 C132 0 264 0 400 0 C400 132 400 264 400 400 C268 400 136 400 0 400 C0 268 0 136 0 0 Z " fill="#F7DB3C" transform="translate(0,0)"/><path d="M0 0 C35.31 0 70.62 0 107 0 C107 10.56 107 21.12 107 32 C84.56 32 62.12 32 39 32 C39 45.53 39 59.06 39 73 C59.79 73 80.58 73 102 73 C102 83.56 102 94.12 102 105 C81.54 105 61.08 105 40 105 C40 120.51 40 136.02 40 152 C62.11 152 84.22 152 107 152 C107 162.89 107 173.78 107 185 C71.69 185 36.38 185 0 185 C0 123.95 0 62.9 0 0 Z " fill="#040301" transform="translate(114,181)"/><path d="M0 0 C-2.23811399 7.00406547 -4.87005265 13.77276643 -7.6875 20.5625 C-8.10322266 21.57119141 -8.51894531 22.57988281 -8.94726562 23.61914062 C-9.96215979 26.0805506 -10.97978253 28.54079283 -12 31 C-17.89942922 29.2618757 -23.74720331 27.43866466 -29.5625 25.4375 C-41.52286609 21.45120656 -55.93820998 17.66723221 -68.25 22.625 C-73.05699972 25.24276535 -76.2506266 28.75187981 -78 34 C-78.40297753 40.0446629 -77.65449484 43.58483054 -75 49 C-74.67 49.99 -74.34 50.98 -74 52 C-72.27953527 53.02903784 -72.27953527 53.02903784 -70 54 C-68.35764758 54.93642901 -66.71567584 55.8735445 -65.07714844 56.81665039 C-57.76264543 61.01636066 -50.32518702 64.85476733 -42.75 68.5625 C-25.33445888 77.157587 -7.67141605 87.65289346 -1 107 C2.89534761 121.96891441 1.84615436 136.14941508 -5.4921875 149.76953125 C-8.20376255 154.00548916 -11.22232535 157.66158985 -15 161 C-15.93585938 161.83144531 -15.93585938 161.83144531 -16.890625 162.6796875 C-34.71781699 177.62118295 -59.8510423 178.06415691 -82 177 C-94.94343706 175.85725531 -106.99263586 171.80294566 -119 167 C-119 154.79 -119 142.58 -119 130 C-113.72 131.98 -108.44 133.96 -103 136 C-85.14989027 142.12003762 -65.97819976 148.356062 -47.4375 141.27734375 C-42.8722324 138.88496794 -40.64009456 135.92028367 -39 131 C-38.27787588 124.61435959 -38.33263009 119.13915554 -42.21875 113.828125 C-48.30815999 107.57846738 -56.70919698 104.06125345 -64.44677734 100.26391602 C-70.17791316 97.44399314 -75.82319779 94.48321844 -81.4375 91.4375 C-82.253396 91.00276367 -83.06929199 90.56802734 -83.90991211 90.12011719 C-97.88867839 82.47696885 -109.58366286 72.25026381 -115.10546875 56.93359375 C-118.96778557 42.44537242 -118.3635885 27.42844549 -111.45703125 14 C-103.37678995 0.39117255 -90.18219118 -7.15409823 -75.1015625 -11.09375 C-48.92724196 -16.66350258 -24.18122653 -9.15298889 0 0 Z " fill="#010100" transform="translate(367,191)"/></svg>